# xmcd CD database file
#
# Track frame offsets:
#	150
#	9980
#	22650
#	36280
#	46437
#	54562
#	66080
#	76885
#	85837
#	99852
#	109362
#	122585
#	134087
#	147677
#
# Disc length: 2113 seconds
#
# Revision: 3
# Processed by: cddbd v1.5.2PL0 Copyright (c) Steve Scherf et al.
# Submitted via: CDex 1.79
#
DISCID=b8083f0e
DTITLE=Willie Nelson - Super Stars
DYEAR=1994
DGENRE=Country
TTITLE0=Let's Pretend
TTITLE1=Any Old Arms Won't Do
TTITLE2=You'll Always Have Someone
TTITLE3=Pride Wins Again
TTITLE4=Things To Remember
TTITLE5=Touch Me
TTITLE6=I Feel Sorry For Him
TTITLE7=Why Are You Picking On Me?
TTITLE8=Will You Remember Mine
TTITLE9=I'm Building Heartaches
TTITLE10=I Just Don't Understand
TTITLE11=Suffering In Silence
TTITLE12=The Last Letter
TTITLE13=Go Away
EXTD=Gold 032 YEAR: 1994
EXTT0=(Nelson)
EXTT1=(Nelson)
EXTT2=(Nelson)
EXTT3=(Nelson)
EXTT4=(Nelson)
EXTT5=(Nelson)
EXTT6=(Nelson)
EXTT7=(Nelson)
EXTT8=(Nelson)
EXTT9=(Nelson)
EXTT10=(Nelson)
EXTT11=(Nelson)
EXTT12=(Nelson)
EXTT13=(Nelson)
PLAYORDER=
